<?xml version="1.0" encoding="utf-8"?><!-- Uploaded to: SVG Repo, www.svgrepo.com, Generator: SVG Repo Mixer Tools -->
<svg width="800px" height="800px" viewBox="0 0 24 24" fill="none" xmlns="http://www.w3.org/2000/svg">
<path fill-rule="evenodd" clip-rule="evenodd" d="M12.0304 5.9513C12.0304 4.88247 11.1352 3.86067 9.90188 4.01565C8.51526 4.18989 7.18259 4.68447 6.01205 5.4666C4.5275 6.45855 3.37044 7.86843 2.68717 9.51797C2.00391 11.1675 1.82514 12.9826 2.17346 14.7338C2.52179 16.4849 3.38156 18.0934 4.64407 19.3559C5.90657 20.6184 7.5151 21.4782 9.26624 21.8265C11.0174 22.1749 12.8325 21.9961 14.482 21.3128C16.1316 20.6296 17.5415 19.4725 18.5334 17.988C19.3155 16.8174 19.8101 15.4847 19.9844 14.0981C20.1393 12.8648 19.1175 11.9696 18.0487 11.9696H13.0335C12.4795 11.9696 12.0304 11.5205 12.0304 10.9665V5.9513Z" fill="#000000"/>
<rect width="24" height="24" fill="white"/>
</svg>